<svg xmlns="http://www.w3.org/2000/svg" viewBox="0 0 64 64" fill="none">
  <rect width="64" height="64" rx="14" fill="#1e293b"/>
  <path d="M18 44V20a2 2 0 0 1 2-2h24a2 2 0 0 1 2 2v24a2 2 0 0 1-2 2H20a2 2 0 0 1-2-2Z" stroke="#38bdf8" stroke-width="2.5" fill="none"/>
  <path d="M26 18v28M38 18v28M18 30h28M18 36h28" stroke="#38bdf8" stroke-width="1.5" opacity="0.3"/>
  <path d="M24 26h16M24 32h12M24 38h8" stroke="#f8fafc" stroke-width="2.5" stroke-linecap="round"/>
  <circle cx="48" cy="48" r="12" fill="#22c55e"/>
  <path d="M43 48l3 3 6-6" stroke="#fff" stroke-width="2.5" stroke-linecap="round" stroke-linejoin="round"/>
</svg>